<?xml version="1.0" encoding="UTF-8"?>
<svg width="42px" height="20px" viewBox="0 0 42 20" version="1.1" xmlns="http://www.w3.org/2000/svg" xmlns:xlink="http://www.w3.org/1999/xlink">
    <!-- Generator: Sketch 54.1 (76490) - https://sketchapp.com -->
    <title>Fill 7</title>
    <desc>Created with Sketch.</desc>
    <g id="Page-1" stroke="none" stroke-width="1" fill="none" fill-rule="evenodd">
        <g id="Overview" transform="translate(-402.000000, -495.000000)" fill="#FFFFFF">
            <g id="Content-I---Header">
                <g id="button/primary" transform="translate(215.000000, 476.000000)">
                    <path d="M211,33 L211,25 C211.345503,25 211.581311,25.0363123 211.706601,25.1089228 C211.831934,25.1813351 211.912267,25.2956212 211.947244,25.4506066 C211.982221,25.6059881 212,25.9590354 212,26.5099749 L212,31.2347351 C212,32.0461581 211.947244,32.5430253 211.84193,32.7257473 C211.736588,32.9088513 211.455836,33 211,33 Z M220.078659,28.1803216 C220.130984,28.0603382 220.245308,28 220.421632,28 C220.602476,28 220.84516,28.0685284 220.90716,28.2062904 C220.969,28.3440648 221,28.6382458 221,29.0885116 L221,31.8192305 C221,32.3348823 220.972539,32.6606366 220.917815,32.7961345 C220.862893,32.9318056 220.624145,33 220.443129,33 C220.266607,33 220.148916,32.9346017 220.089143,32.8032855 C220.029555,32.6721425 220,32.3727406 220,31.9046838 L220,29.0888704 C220,28.6033691 220.026162,28.3008123 220.078659,28.1803216 Z M188.703199,19 C187.738193,19.1500002 187,19.976775 187,20.9745946 L187,20.9745946 L187,37.0011796 C187,38.1051789 187.903809,39 189.018611,39 L189.018611,39 L226.998005,39 C228.025203,39.0000282 228.873191,38.240089 229,37.2569514 L229,37.2569514 L229,20.7188369 C228.886387,19.8382895 228.194395,19.1369231 227.313203,19 L227.313203,19 L188.703199,19 Z M208,23 L210.299299,23 C211.790863,23 212.649099,23.0693203 213.174677,23.2073898 L213.174677,23.2073898 C213.700476,23.3454592 214.100466,23.5723004 214.374234,23.8881086 L214.374234,23.8881086 C214.648195,24.2039168 214.819256,24.5554789 214.887801,24.942586 L214.887801,24.942586 C214.956126,25.3298603 215,26.0909211 215,27.2259077 L215,27.2259077 L215,31.4402504 C215,32.5157399 214.940409,33.2351667 214.840235,33.5974996 L214.840235,33.5974996 C214.739828,33.9604735 214.56509,34.2440529 214.315786,34.4487117 L214.315786,34.4487117 C214.066084,34.6533425 213.758167,34.7965396 213.391375,34.8778429 L213.391375,34.8778429 C213.024376,34.9593692 212.471826,35 211.733586,35 L211.733586,35 L211.733586,35 L208,35 L208,23 Z M217,23 L219.976545,23 L219.976545,26.8529917 C220.223032,26.5689924 220.497873,26.3571035 220.801179,26.2175176 L220.801179,26.2175176 C221.104471,26.0779454 221.559617,26.007568 221.914673,26.007568 L221.914673,26.007568 C222.323883,26.007568 222.67858,26.0707798 222.979317,26.197561 L222.979317,26.197561 C223.280289,26.3241497 223.509429,26.5017232 223.667304,26.730089 L223.667304,26.730089 C223.824972,26.9586611 223.919605,27.1823781 223.95191,27.4012264 L223.95191,27.4012264 C223.983841,27.6201021 224,28.0869289 224,28.8020779 L224,28.8020779 L224,32.1252511 C224,32.8355314 223.951896,33.3642221 223.855743,33.7121898 L223.855743,33.7121898 C223.759396,34.0599923 223.533571,34.3618164 223.178487,34.6171394 L223.178487,34.6171394 C222.82321,34.872256 222.401543,35 221.91314,35 L221.91314,35 C221.562931,35 221.109927,34.9243824 220.806607,34.7728033 L220.806607,34.7728033 C220.503121,34.6212104 220.225725,34.3936149 219.974211,34.0902229 L219.974211,34.0902229 L219.781684,34.8449137 L217,34.8449137 L217,23 Z M202.78268,23 L207,23 L207,35 L204.181267,35 L204.171108,26.9003041 L203.042024,35 L201.027949,35 L199.837839,27.0766634 L199.82768,35 L197,35 L197,23 L201.185587,23 C201.308636,23.7265051 201.437587,24.5790827 201.57244,25.5575237 L201.57244,25.5575237 L202.034994,28.6060305 L202.78268,23 Z M193,35 L196,35 L196,23 L193,23 L193,35 Z" id="Fill-7"></path>
                </g>
            </g>
        </g>
    </g>
</svg>